<svg xmlns="http://www.w3.org/2000/svg"
 xmlns:xlink="http://www.w3.org/1999/xlink"
 width="35px" height="23px"  viewBox="0 0 35 23">
<path fill-rule="evenodd" fill="#000000"
 d="M32.620605,10.68042 C32.620605,10.68042 6.843933,10.68042 6.843933,10.68042 C6.843933,10.68042 12.994568,4.5 12.994568,4.5 C13.533447,3.9592285 13.533447,3.0810547 12.994568,2.5402832 C12.45578,1.9990234 11.582123,1.9990234 11.044128,2.5402832 C11.044128,2.5402832 2.5387878,11.086426 2.5387878,11.086426 C1.9998779,11.627686 1.9998779,12.505371 2.5387878,13.046631 C2.5387878,13.046631 11.044128,21.592773 11.044128,21.592773 C11.313416,21.863281 11.666473,21.999023 12.019409,21.999023 C12.372223,21.999023 12.725281,21.863281 12.994568,21.592773 C13.533447,21.052002 13.533447,20.174316 12.994568,19.633057 C12.994568,19.633057 6.843933,13.452881 6.843933,13.452881 C6.843933,13.452881 32.620483,13.452881 32.620483,13.452881 C33.382202,13.452881 33.99997,12.832031 33.99997,12.066406 C33.99997,11.301025 33.382324,10.68042 32.620605,10.68042 Z"/>
</svg>