<svg xmlns="http://www.w3.org/2000/svg"
 xmlns:xlink="http://www.w3.org/1999/xlink"
 width="35px" height="23px"  viewBox="0 0 35 23">
<path fill-rule="evenodd"  fill="#000000"
 d="M3.3791504,10.68042 C3.3791504,10.68042 29.155884,10.68042 29.155884,10.68042 C29.155884,10.68042 23.005249,4.5 23.005249,4.5 C22.466309,3.9592285 22.466309,3.0810547 23.005249,2.5402832 C23.543945,1.9990234 24.417603,1.9990234 24.955566,2.5402832 C24.955566,2.5402832 33.460938,11.086426 33.460938,11.086426 C33.999878,11.627686 33.999878,12.505371 33.460938,13.046631 C33.460938,13.046631 24.955566,21.592773 24.955566,21.592773 C24.686401,21.863281 24.333252,21.999023 23.980347,21.999023 C23.627563,21.999023 23.274536,21.863281 23.005249,21.592773 C22.466309,21.052002 22.466309,20.174316 23.005249,19.633057 C23.005249,19.633057 29.155884,13.452881 29.155884,13.452881 C29.155884,13.452881 3.3792725,13.452881 3.3792725,13.452881 C2.6175537,13.452881 1.9998779,12.832031 1.9998779,12.066406 C1.9998779,11.301025 2.6174316,10.68042 3.3791504,10.68042 Z"/>
</svg>